<svg version="1.1" id="Layer_1" xmlns="http://www.w3.org/2000/svg" xmlns:xlink="http://www.w3.org/1999/xlink" x="0px" y="0px"
	 width="100%" viewBox="0 0 500 500" enable-background="new 0 0 500 500" xml:space="preserve">
<path fill="#010101" opacity="1.000000" stroke="none" 
	d="
M346.000000,501.000000 
	C230.666687,501.000000 115.833389,501.000000 1.000062,501.000000 
	C1.000041,334.333405 1.000041,167.666794 1.000021,1.000151 
	C167.666550,1.000101 334.333099,1.000101 500.999756,1.000050 
	C500.999817,167.666519 500.999817,334.333038 500.999908,500.999786 
	C449.500000,501.000000 398.000000,501.000000 346.000000,501.000000 
M93.499939,377.195679 
	C124.657761,377.168091 155.817810,377.357422 186.972641,377.038361 
	C208.558411,376.817291 222.683121,365.725952 228.683136,345.091064 
	C233.118195,329.838440 232.674255,314.130310 232.747559,298.476562 
	C232.833786,280.062134 230.200943,262.549347 216.925552,249.354538 
	C220.497650,242.621948 224.964890,236.707275 226.924927,230.053986 
	C233.708313,207.028214 233.281570,183.454391 227.515961,160.458832 
	C222.038605,138.612869 209.131485,128.339111 186.512924,127.927856 
	C140.208801,127.085960 93.882118,127.271988 47.566017,127.425293 
	C32.742844,127.474350 21.201735,139.949402 21.332161,155.356339 
	C21.879404,220.000763 21.756966,284.656006 21.175413,349.300964 
	C21.039656,364.391663 33.642986,377.933411 49.016380,377.317078 
	C63.489254,376.736816 78.003746,377.194580 93.499939,377.195679 
M284.275482,155.816666 
	C276.380096,169.358170 272.470978,184.210968 272.043060,199.639603 
	C271.184021,230.611130 270.944275,261.607330 270.997192,292.592438 
	C271.014740,302.873810 272.231598,313.224335 273.759125,323.414459 
	C275.805267,337.064392 280.454041,349.867035 289.412903,360.693573 
	C301.880615,375.760345 319.103882,380.938293 337.475861,381.285492 
	C376.461090,382.022186 415.468872,381.781891 454.465454,381.574707 
	C467.571289,381.505096 477.515961,374.723907 481.710724,362.527039 
	C485.120758,352.611847 487.340240,341.838135 487.617157,331.379761 
	C488.406555,301.567261 487.997559,271.721222 487.924042,241.888702 
	C487.899475,231.928741 484.104492,228.270935 474.321381,228.264191 
	C439.821838,228.240387 405.322296,228.245102 370.822754,228.263885 
	C362.652374,228.268326 359.486664,231.133118 359.275513,239.172943 
	C359.065613,247.166916 359.052734,255.176315 359.290802,263.168884 
	C359.525879,271.060791 362.544220,273.767639 370.534119,273.777283 
	C393.367126,273.804779 416.200165,273.788269 439.033203,273.789062 
	C440.776825,273.789124 442.520447,273.789093 444.623932,273.789093 
	C444.623932,291.063721 444.934387,307.547424 444.504211,324.011749 
	C444.257416,333.457092 441.111084,335.859039 431.640106,335.866943 
	C405.973785,335.888367 380.307281,335.927246 354.641296,335.836578 
	C348.987061,335.816589 343.298492,335.592773 337.689606,334.925903 
	C328.753113,333.863434 322.478485,328.953918 320.124451,320.182709 
	C318.539307,314.276520 317.142090,308.110779 317.067047,302.043762 
	C316.693970,271.883911 316.580383,241.716324 316.864594,211.556061 
	C316.934296,204.157043 318.346985,196.660645 320.030670,189.415466 
	C322.015076,180.876373 327.818512,175.602325 336.639099,174.290527 
	C341.394745,173.583267 346.230347,173.074692 351.031189,173.063919 
	C393.197083,172.969345 435.363281,173.017334 477.529388,172.996155 
	C484.942413,172.992432 487.915466,170.204865 488.079254,162.868530 
	C488.246613,155.372253 488.178131,147.869858 488.153107,140.370346 
	C488.117157,129.600601 485.921509,127.380646 475.303406,127.377182 
	C439.303894,127.365440 403.304199,127.315262 367.304932,127.404785 
	C355.810638,127.433365 344.271240,127.284767 332.833801,128.215958 
	C312.828247,129.844711 295.788574,137.396759 284.275482,155.816666 
z"/>
<path fill="#FCFCFC" opacity="1.000000" stroke="none" 
	d="
M92.999931,377.195679 
	C78.003746,377.194580 63.489254,376.736816 49.016380,377.317078 
	C33.642986,377.933411 21.039656,364.391663 21.175413,349.300964 
	C21.756966,284.656006 21.879404,220.000763 21.332161,155.356339 
	C21.201735,139.949402 32.742844,127.474350 47.566017,127.425293 
	C93.882118,127.271988 140.208801,127.085960 186.512924,127.927856 
	C209.131485,128.339111 222.038605,138.612869 227.515961,160.458832 
	C233.281570,183.454391 233.708313,207.028214 226.924927,230.053986 
	C224.964890,236.707275 220.497650,242.621948 216.925552,249.354538 
	C230.200943,262.549347 232.833786,280.062134 232.747559,298.476562 
	C232.674255,314.130310 233.118195,329.838440 228.683136,345.091064 
	C222.683121,365.725952 208.558411,376.817291 186.972641,377.038361 
	C155.817810,377.357422 124.657761,377.168091 92.999931,377.195679 
M80.512680,172.079330 
	C77.180733,172.079620 73.834007,172.276276 70.520836,172.026993 
	C66.950775,171.758377 65.922707,173.237488 65.927551,176.647934 
	C65.999290,227.127899 65.995079,277.608032 65.929222,328.088013 
	C65.925346,331.059723 66.758690,332.149017 69.893715,332.138702 
	C104.379623,332.025299 138.866180,332.108521 173.352020,331.984650 
	C182.888840,331.950409 187.349182,327.579651 187.837479,317.901703 
	C188.198090,310.754608 188.020065,303.578400 188.016312,296.415222 
	C188.006729,278.050842 183.657394,273.657288 165.412201,273.623840 
	C147.252777,273.590515 129.092880,273.674683 110.933907,273.575378 
	C103.425255,273.534332 99.632172,269.596069 99.551147,262.109192 
	C99.482643,255.779083 99.527824,249.447678 99.532654,243.116852 
	C99.541092,232.067825 102.806702,228.758667 113.696671,228.734909 
	C133.021667,228.692764 152.349472,228.829437 171.670563,228.531662 
	C182.766495,228.360626 187.371521,223.580765 187.736435,212.479202 
	C187.993530,204.657944 187.973007,196.816116 187.746140,188.993042 
	C187.389313,176.689102 182.851013,172.375320 170.472763,172.094223 
	C169.140564,172.063965 167.807236,172.079895 166.474442,172.079865 
	C138.152283,172.079208 109.830132,172.079361 80.512680,172.079330 
z"/>
<path fill="#FBFBFB" opacity="1.000000" stroke="none" 
	d="
M284.484344,155.517487 
	C295.788574,137.396759 312.828247,129.844711 332.833801,128.215958 
	C344.271240,127.284767 355.810638,127.433365 367.304932,127.404785 
	C403.304199,127.315262 439.303894,127.365440 475.303406,127.377182 
	C485.921509,127.380646 488.117157,129.600601 488.153107,140.370346 
	C488.178131,147.869858 488.246613,155.372253 488.079254,162.868530 
	C487.915466,170.204865 484.942413,172.992432 477.529388,172.996155 
	C435.363281,173.017334 393.197083,172.969345 351.031189,173.063919 
	C346.230347,173.074692 341.394745,173.583267 336.639099,174.290527 
	C327.818512,175.602325 322.015076,180.876373 320.030670,189.415466 
	C318.346985,196.660645 316.934296,204.157043 316.864594,211.556061 
	C316.580383,241.716324 316.693970,271.883911 317.067047,302.043762 
	C317.142090,308.110779 318.539307,314.276520 320.124451,320.182709 
	C322.478485,328.953918 328.753113,333.863434 337.689606,334.925903 
	C343.298492,335.592773 348.987061,335.816589 354.641296,335.836578 
	C380.307281,335.927246 405.973785,335.888367 431.640106,335.866943 
	C441.111084,335.859039 444.257416,333.457092 444.504211,324.011749 
	C444.934387,307.547424 444.623932,291.063721 444.623932,273.789093 
	C442.520447,273.789093 440.776825,273.789124 439.033203,273.789062 
	C416.200165,273.788269 393.367126,273.804779 370.534119,273.777283 
	C362.544220,273.767639 359.525879,271.060791 359.290802,263.168884 
	C359.052734,255.176315 359.065613,247.166916 359.275513,239.172943 
	C359.486664,231.133118 362.652374,228.268326 370.822754,228.263885 
	C405.322296,228.245102 439.821838,228.240387 474.321381,228.264191 
	C484.104492,228.270935 487.899475,231.928741 487.924042,241.888702 
	C487.997559,271.721222 488.406555,301.567261 487.617157,331.379761 
	C487.340240,341.838135 485.120758,352.611847 481.710724,362.527039 
	C477.515961,374.723907 467.571289,381.505096 454.465454,381.574707 
	C415.468872,381.781891 376.461090,382.022186 337.475861,381.285492 
	C319.103882,380.938293 301.880615,375.760345 289.412903,360.693573 
	C280.454041,349.867035 275.805267,337.064392 273.759125,323.414459 
	C272.231598,313.224335 271.014740,302.873810 270.997192,292.592438 
	C270.944275,261.607330 271.184021,230.611130 272.043060,199.639603 
	C272.470978,184.210968 276.380096,169.358170 284.484344,155.517487 
z"/>
<path fill="#030303" opacity="1.000000" stroke="none" 
	d="
M81.010330,172.079346 
	C109.830132,172.079361 138.152283,172.079208 166.474442,172.079865 
	C167.807236,172.079895 169.140564,172.063965 170.472763,172.094223 
	C182.851013,172.375320 187.389313,176.689102 187.746140,188.993042 
	C187.973007,196.816116 187.993530,204.657944 187.736435,212.479202 
	C187.371521,223.580765 182.766495,228.360626 171.670563,228.531662 
	C152.349472,228.829437 133.021667,228.692764 113.696671,228.734909 
	C102.806702,228.758667 99.541092,232.067825 99.532654,243.116852 
	C99.527824,249.447678 99.482643,255.779083 99.551147,262.109192 
	C99.632172,269.596069 103.425255,273.534332 110.933907,273.575378 
	C129.092880,273.674683 147.252777,273.590515 165.412201,273.623840 
	C183.657394,273.657288 188.006729,278.050842 188.016312,296.415222 
	C188.020065,303.578400 188.198090,310.754608 187.837479,317.901703 
	C187.349182,327.579651 182.888840,331.950409 173.352020,331.984650 
	C138.866180,332.108521 104.379623,332.025299 69.893715,332.138702 
	C66.758690,332.149017 65.925346,331.059723 65.929222,328.088013 
	C65.995079,277.608032 65.999290,227.127899 65.927551,176.647934 
	C65.922707,173.237488 66.950775,171.758377 70.520836,172.026993 
	C73.834007,172.276276 77.180733,172.079620 81.010330,172.079346 
z"/>
</svg>